<?xml version="1.0" encoding="UTF-8"?>
<svg id="Layer_2" data-name="Layer 2" xmlns="http://www.w3.org/2000/svg" viewBox="0 0 218.16 81.37">
  <defs>
    <style>
      .cls-1, .cls-2 {
        fill: #231f20;
      }

      .cls-3 {
        font-size: 35.86px;
        letter-spacing: 0em;
      }

      .cls-3, .cls-4 {
        font-family: Courier-Bold, Courier;
        font-weight: 700;
      }

      .cls-4, .cls-5 {
        font-size: 43.04px;
      }

      .cls-5 {
        font-family: Courier, Courier;
      }

      .cls-2 {
        stroke-width: 0px;
      }
    </style>
  </defs>
  <g id="Layer_1-2" data-name="Layer 1">
    <text class="cls-1" transform="translate(0 63.76) scale(.96 1)"><tspan class="cls-5" x="0" y="0">scATA</tspan><tspan class="cls-4" x="129.13" y="0">c </tspan><tspan class="cls-3" x="180.79" y="0"> </tspan><tspan class="cls-4" x="202.31" y="0">t</tspan></text>
    <path class="cls-2" d="m149.85,61.08c-.38.92-.33,1.93.15,2.81.29.29.71.47,1.14.48l27.99-.18c.88-.04,1.58-.7,1.6-1.5.02-.14.02-.27,0-.41-.19-.65-.84-1.1-1.58-1.11h-6.07c-.62,0-1.13-.45-1.13-1.02,0-.12.02-.23.06-.35l4.73-11.92c.15-.38.52-.65.96-.68.44-.04.86.16,1.07.51l9.63,15.1c.56.81,1.52,1.32,2.57,1.37l3.22.16c.53.04,1.04-.19,1.32-.6.3-.41.33-.93.09-1.37l-.65-1.19c-1.79-3.55-6.7-13.06-8.01-14.77-2.26-2.92.81-12.78,3.01-17.41,1.43-3.03.26-6.89-.77-10.31-.74-2.48-1.38-4.61-.92-6.18.02-.07.05-.14.09-.2.42-.73.76-1.49,1.02-2.28.03-.08.07-.16.12-.23l1.51-2.21c.86-1.31.94-2.92.21-4.29-.86-1.58-2.81-2.41-4.7-1.99l-1.51.33-.44.07c-3.28.19-7.11.85-7.15.85-.26.05-.53.02-.75-.11l-5.22-2.44,1.51,18.85c.04.49-.32.94-.84,1.06l-15.29,3.49c-12.22,5.2-7.02,36.93-6.95,37.24.02.14.01.29-.03.42Z"/>
  </g>
</svg>