<?xml version="1.0" encoding="UTF-8"?>
<svg id="Layer_2" data-name="Layer 2" xmlns="http://www.w3.org/2000/svg" viewBox="0 0 218.16 81.27">
  <defs>
    <style>
      .cls-1 {
        font-family: Courier, Courier;
      }

      .cls-1, .cls-2, .cls-3, .cls-4 {
        isolation: isolate;
      }

      .cls-1, .cls-3 {
        font-size: 43.04px;
      }

      .cls-1, .cls-3, .cls-5, .cls-4 {
        fill: #fff;
      }

      .cls-3, .cls-4 {
        font-family: Courier-Bold, Courier;
        font-weight: 700;
      }

      .cls-5 {
        stroke-width: 0px;
      }

      .cls-4 {
        font-size: 35.86px;
      }
    </style>
  </defs>
  <g id="Layer_1-2" data-name="Layer 1">
    <g class="cls-2">
      <text class="cls-1" transform="translate(0 63.66) scale(.96 1)"><tspan x="0" y="0">scATA</tspan></text>
      <text class="cls-3" transform="translate(123.46 63.66) scale(.96 1)"><tspan x="0" y="0">c </tspan></text>
      <text class="cls-4" transform="translate(172.9 63.66) scale(.96 1)"><tspan x="0" y="0"> </tspan></text>
      <text class="cls-3" transform="translate(193.46 63.66) scale(.96 1)"><tspan x="0" y="0">t</tspan></text>
    </g>
    <path class="cls-5" d="m149.81,61c-.4.9-.3,1.9.2,2.8.3.3.7.5,1.1.5l28-.2c.9,0,1.6-.7,1.6-1.5v-.4c-.2-.7-.8-1.1-1.6-1.1h-6.1c-.6,0-1.1-.5-1.1-1,0-.1,0-.2.1-.3l4.7-11.9c.1-.4.5-.6,1-.7.4,0,.9.2,1.1.5l9.6,15.1c.6.8,1.5,1.3,2.6,1.4l3.2.2c.5,0,1-.2,1.3-.6s.3-.9.1-1.4l-.6-1.2c-1.8-3.5-6.7-13.1-8-14.8-2.3-2.9.8-12.8,3-17.4,1.4-3,.3-6.9-.8-10.3-.7-2.5-1.4-4.6-.9-6.2q0-.1.1-.2c.4-.7.8-1.5,1-2.3,0-.1.1-.2.1-.2l1.5-2.2c.9-1.3.9-2.9.2-4.3-.9-1.6-2.8-2.4-4.7-2l-1.5.3-.4.1c-3.3.2-7.1.8-7.2.8-.3.1-.5,0-.8-.1l-5.2-2.4,1.5,18.9c0,.5-.3.9-.8,1.1l-15.3,3.5c-12.2,5.2-7,36.9-7,37.2.1,0,.1.1,0,.3Z"/>
  </g>
</svg>