<?xml version="1.0" encoding="UTF-8"?>
<svg id="Layer_2" data-name="Layer 2" xmlns="http://www.w3.org/2000/svg" viewBox="0 0 63.61 22.69">
  <defs>
    <style>
      .cls-1 {
        font-size: 10px;
      }

      .cls-2 {
        fill: #231f20;
        font-family: Courier, Courier;
      }

      .cls-3 {
        font-size: 12px;
      }

      .cls-4 {
        fill: #010101;
        stroke-width: 0px;
      }
    </style>
  </defs>
  <g id="Layer_1-2" data-name="Layer 1">
    <text class="cls-2" transform="translate(0 17.78)"><tspan class="cls-3" x="0" y="0">scATAC </tspan><tspan class="cls-1" x="50.41" y="0"> </tspan><tspan class="cls-3" x="56.41" y="0">t</tspan></text>
    <path class="cls-4" d="m43.69,17.03c-.11.26-.1.54.04.78.09.08.21.13.33.13l8.16-.05c.26-.01.46-.19.47-.42,0-.04,0-.08,0-.11-.06-.18-.24-.31-.46-.31h-1.77c-.18,0-.33-.13-.33-.28,0-.03,0-.07.02-.1l1.38-3.32c.04-.11.15-.18.28-.19.13-.01.25.04.31.14l2.81,4.21c.16.23.44.37.75.38l.94.05c.15.01.3-.05.39-.17.09-.11.1-.26.03-.38l-.19-.33c-.52-.99-1.95-3.64-2.34-4.12-.66-.81.24-3.56.88-4.85.42-.85.07-1.92-.22-2.87-.22-.69-.4-1.29-.27-1.72,0-.02.01-.04.03-.06.12-.2.22-.42.3-.64,0-.02.02-.04.04-.06l.44-.62c.25-.36.27-.81.06-1.2-.25-.44-.82-.67-1.37-.56l-.44.09-.13.02c-.96.05-2.07.24-2.08.24-.07.02-.15,0-.22-.03l-1.52-.68.44,5.26c.01.14-.09.26-.25.3l-4.46.97c-3.56,1.45-2.05,10.3-2.03,10.38,0,.04,0,.08,0,.12Z"/>
  </g>
</svg>